{"title":"MTV Webbed - Couch Hopping With The Enemy- HDTVRip x264 AAC [ Ta","uid":15202635,"size":293955403,"categoryP":"video","categoryS":"tv_shows","magnet":"?xt=urn:btih:68b12507a2e11ad94f81eb0c5bf255ee9ed7a21d&amp;dn=MTV+Webbed+-+Couch+Hopping+With+The+Enemy-+HDTVRip+x264+AAC+%5B+Ta&amp;tr=udp%3A%2F%2Ftracker.leechers-paradise.org%3A6969&amp;tr=udp%3A%2F%2Fzer0day.ch%3A1337&amp;tr=udp%3A%2F%2Fopen.demonii.com%3A1337&amp;tr=udp%3A%2F%2Ftracker.coppersurfer.tk%3A6969&amp;tr=udp%3A%2F%2Fexodus.desync.com%3A6969","seeders":0,"leechers":0,"uploader":"MdTaRa","files":1,"time":1467603834,"description":"==========================================================================\r\nGeneral\r\nComplete name               : MTV Webbed - Couch Hopping With The Enemy- HDTVRip x264 AAC [ TaRa ].mkv\r\nFormat                      : Matroska\r\nFormat version              : Version 4 / Version 2\r\nFile size                   : 280 MiB\r\nDuration                    : 45mn 26s\r\nOverall bit rate            : 863 Kbps\r\n=======================================================================\r\nVideo\r\nID                          : 1\r\nFormat                      : AVC\r\nFormat/Info                 : Advanced Video Codec\r\nFormat profile              :   \r\nFormat settings, CABAC      : Yes\r\nFormat settings, ReFrames   : 4 frames\r\nCodec ID                    : V_MPEG4/ISO/AVC\r\nDuration                    : 45mn 26s\r\nBit rate                    : 770 Kbps\r\nWidth                       : 854 pixels\r\nHeight                      : 480 pixels\r\nDisplay aspect ratio        : 16:9\r\nFrame rate mode             : Constant\r\nFrame rate                  : 25.000 fps\r\nColor space                 : YUV\r\nChroma subsampling          : 4:2:0\r\nBit depth                   : 8 bits\r\nScan type                   : Progressive\r\nBits/(Pixel*Frame)          : 0.075\r\nStream size                 : 249 MiB (89%)\r\nTitle                       : ....::::: TaRa ::::::.....\r\nLanguage                    : Hindi\r\nDefault                     : Yes\r\nForced                      : No\r\n==========================================================================\r\nAudio\r\nID                          : 2\r\nFormat                      : AAC\r\nFormat/Info                 : Advanced Audio Codec\r\nFormat profile              : LC\r\nCodec ID                    : A_AAC\r\nDuration                    : 45mn 26s\r\nBit rate                    : 93.3 Kbps\r\nChannel(s)                  : 2 channels\r\nChannel positions           : Front: L R\r\nSampling rate               : 48.0 KHz\r\nFrame rate                  : 46.875 fps (1024 spf)\r\nCompression mode            : Lossy\r\nDelay relative to video     : -80ms\r\nStream size                 : 30.3 MiB (11%)\r\nTitle                       : ....::::: TaRa ::::::.....\r\nLanguage                    : Hindi\r\nDefault                     : Yes\r\nForced                      : No\r\n============================================================================ \nhttps://picoolio.net/image/IJbw","torrent":{"xt":"urn:btih:68b12507a2e11ad94f81eb0c5bf255ee9ed7a21d","amp;dn":"MTV+Webbed+-+Couch+Hopping+With+The+Enemy-+HDTVRip+x264+AAC+%5B+Ta","amp;tr":["udp%3A%2F%2Ftracker.leechers-paradise.org%3A6969","udp%3A%2F%2Fzer0day.ch%3A1337","udp%3A%2F%2Fopen.demonii.com%3A1337","udp%3A%2F%2Ftracker.coppersurfer.tk%3A6969","udp%3A%2F%2Fexodus.desync.com%3A6969"],"infoHash":"68b12507a2e11ad94f81eb0c5bf255ee9ed7a21d","infoHashBuffer":{"type":"Buffer","data":[104,177,37,7,162,225,26,217,79,129,235,12,91,242,85,238,158,215,162,29]},"announce":[],"urlList":[]}}